solid Mesh
  facet normal 0.992709 0.120537 -0.000000
    outer loop
      vertex 0.500000 -0.000000 0.000000
      vertex 0.485471 0.119658 0.000000
      vertex 0.500000 -0.000000 10.000000
    endloop
  endfacet
  facet normal 0.992709 0.120537 0.000000
    outer loop
      vertex 0.500000 -0.000000 10.000000
      vertex 0.485471 0.119658 0.000000
      vertex 0.485471 0.119658 10.000000
    endloop
  endfacet
  facet normal 0.935016 0.354605 0.000000
    outer loop
      vertex 0.485471 0.119658 10.000000
      vertex 0.485471 0.119658 0.000000
      vertex 0.442728 0.232362 10.000000
    endloop
  endfacet
  facet normal 0.935016 0.354605 0.000000
    outer loop
      vertex 0.485471 0.119658 0.000000
      vertex 0.442728 0.232362 0.000000
      vertex 0.442728 0.232362 10.000000
    endloop
  endfacet
  facet normal 0.822984 0.568065 0.000000
    outer loop
      vertex 0.442728 0.232362 10.000000
      vertex 0.374255 0.331561 0.000000
      vertex 0.374255 0.331561 10.000000
    endloop
  endfacet
  facet normal 0.822984 0.568065 -0.000000
    outer loop
      vertex 0.442728 0.232362 0.000000
      vertex 0.374255 0.331561 0.000000
      vertex 0.442728 0.232362 10.000000
    endloop
  endfacet
  facet normal 0.663123 0.748511 0.000000
    outer loop
      vertex 0.374255 0.331561 10.000000
      vertex 0.284032 0.411492 0.000000
      vertex 0.284032 0.411492 10.000000
    endloop
  endfacet
  facet normal 0.464723 0.885456 0.000000
    outer loop
      vertex 0.284032 0.411492 10.000000
      vertex 0.284032 0.411492 0.000000
      vertex 0.177302 0.467508 10.000000
    endloop
  endfacet
  facet normal 0.663123 0.748511 -0.000000
    outer loop
      vertex 0.374255 0.331561 0.000000
      vertex 0.284032 0.411492 0.000000
      vertex 0.374255 0.331561 10.000000
    endloop
  endfacet
  facet normal 0.239316 0.970942 0.000000
    outer loop
      vertex 0.177302 0.467508 10.000000
      vertex 0.177302 0.467508 0.000000
      vertex 0.060268 0.496354 10.000000
    endloop
  endfacet
  facet normal 0.464723 0.885456 0.000000
    outer loop
      vertex 0.284032 0.411492 0.000000
      vertex 0.177302 0.467508 0.000000
      vertex 0.177302 0.467508 10.000000
    endloop
  endfacet
  facet normal 0.239316 0.970942 0.000000
    outer loop
      vertex 0.177302 0.467508 0.000000
      vertex 0.060268 0.496354 0.000000
      vertex 0.060268 0.496354 10.000000
    endloop
  endfacet
  facet normal 0.000000 1.000000 0.000000
    outer loop
      vertex 0.060268 0.496354 10.000000
      vertex -0.060268 0.496354 0.000000
      vertex -0.060268 0.496354 10.000000
    endloop
  endfacet
  facet normal 0.000000 1.000000 -0.000000
    outer loop
      vertex 0.060268 0.496354 0.000000
      vertex -0.060268 0.496354 0.000000
      vertex 0.060268 0.496354 10.000000
    endloop
  endfacet
  facet normal -0.239316 0.970942 0.000000
    outer loop
      vertex -0.060268 0.496354 10.000000
      vertex -0.177302 0.467508 0.000000
      vertex -0.177302 0.467508 10.000000
    endloop
  endfacet
  facet normal -0.464723 0.885456 0.000000
    outer loop
      vertex -0.177302 0.467508 10.000000
      vertex -0.177302 0.467508 0.000000
      vertex -0.284032 0.411492 10.000000
    endloop
  endfacet
  facet normal -0.239316 0.970942 0.000000
    outer loop
      vertex -0.060268 0.496354 0.000000
      vertex -0.177302 0.467508 0.000000
      vertex -0.060268 0.496354 10.000000
    endloop
  endfacet
  facet normal -0.464723 0.885456 0.000000
    outer loop
      vertex -0.177302 0.467508 0.000000
      vertex -0.284032 0.411492 0.000000
      vertex -0.284032 0.411492 10.000000
    endloop
  endfacet
  facet normal -0.663123 0.748511 0.000000
    outer loop
      vertex -0.284032 0.411492 10.000000
      vertex -0.374255 0.331561 0.000000
      vertex -0.374255 0.331561 10.000000
    endloop
  endfacet
  facet normal -0.663123 0.748511 0.000000
    outer loop
      vertex -0.284032 0.411492 0.000000
      vertex -0.374255 0.331561 0.000000
      vertex -0.284032 0.411492 10.000000
    endloop
  endfacet
  facet normal -0.822984 0.568065 0.000000
    outer loop
      vertex -0.374255 0.331561 0.000000
      vertex -0.442728 0.232362 0.000000
      vertex -0.374255 0.331561 10.000000
    endloop
  endfacet
  facet normal -0.822984 0.568065 0.000000
    outer loop
      vertex -0.374255 0.331561 10.000000
      vertex -0.442728 0.232362 0.000000
      vertex -0.442728 0.232362 10.000000
    endloop
  endfacet
  facet normal -0.935016 0.354605 0.000000
    outer loop
      vertex -0.442728 0.232362 0.000000
      vertex -0.485471 0.119658 0.000000
      vertex -0.442728 0.232362 10.000000
    endloop
  endfacet
  facet normal -0.935016 0.354605 0.000000
    outer loop
      vertex -0.442728 0.232362 10.000000
      vertex -0.485471 0.119658 0.000000
      vertex -0.485471 0.119658 10.000000
    endloop
  endfacet
  facet normal -0.992709 0.120537 0.000000
    outer loop
      vertex -0.485471 0.119658 0.000000
      vertex -0.500000 0.000000 0.000000
      vertex -0.485471 0.119658 10.000000
    endloop
  endfacet
  facet normal -0.992709 0.120537 0.000000
    outer loop
      vertex -0.485471 0.119658 10.000000
      vertex -0.500000 0.000000 0.000000
      vertex -0.500000 0.000000 10.000000
    endloop
  endfacet
  facet normal -0.992709 -0.120537 0.000000
    outer loop
      vertex -0.500000 0.000000 10.000000
      vertex -0.485471 -0.119658 0.000000
      vertex -0.485471 -0.119658 10.000000
    endloop
  endfacet
  facet normal -0.992709 -0.120537 0.000000
    outer loop
      vertex -0.500000 0.000000 0.000000
      vertex -0.485471 -0.119658 0.000000
      vertex -0.500000 0.000000 10.000000
    endloop
  endfacet
  facet normal -0.935016 -0.354605 0.000000
    outer loop
      vertex -0.485471 -0.119658 0.000000
      vertex -0.442728 -0.232362 0.000000
      vertex -0.485471 -0.119658 10.000000
    endloop
  endfacet
  facet normal -0.935016 -0.354605 0.000000
    outer loop
      vertex -0.485471 -0.119658 10.000000
      vertex -0.442728 -0.232362 0.000000
      vertex -0.442728 -0.232362 10.000000
    endloop
  endfacet
  facet normal -0.822984 -0.568065 0.000000
    outer loop
      vertex -0.442728 -0.232362 10.000000
      vertex -0.374255 -0.331561 0.000000
      vertex -0.374255 -0.331561 10.000000
    endloop
  endfacet
  facet normal -0.822984 -0.568065 0.000000
    outer loop
      vertex -0.442728 -0.232362 0.000000
      vertex -0.374255 -0.331561 0.000000
      vertex -0.442728 -0.232362 10.000000
    endloop
  endfacet
  facet normal -0.663123 -0.748511 0.000000
    outer loop
      vertex -0.374255 -0.331561 10.000000
      vertex -0.284032 -0.411492 0.000000
      vertex -0.284032 -0.411492 10.000000
    endloop
  endfacet
  facet normal -0.663123 -0.748511 0.000000
    outer loop
      vertex -0.374255 -0.331561 0.000000
      vertex -0.284032 -0.411492 0.000000
      vertex -0.374255 -0.331561 10.000000
    endloop
  endfacet
  facet normal -0.464723 -0.885456 0.000000
    outer loop
      vertex -0.284032 -0.411492 10.000000
      vertex -0.177302 -0.467508 0.000000
      vertex -0.177302 -0.467508 10.000000
    endloop
  endfacet
  facet normal -0.464723 -0.885456 0.000000
    outer loop
      vertex -0.284032 -0.411492 0.000000
      vertex -0.177302 -0.467508 0.000000
      vertex -0.284032 -0.411492 10.000000
    endloop
  endfacet
  facet normal -0.239316 -0.970942 0.000000
    outer loop
      vertex -0.177302 -0.467508 10.000000
      vertex -0.060268 -0.496354 0.000000
      vertex -0.060268 -0.496354 10.000000
    endloop
  endfacet
  facet normal 0.000000 -1.000000 0.000000
    outer loop
      vertex -0.060268 -0.496354 10.000000
      vertex -0.060268 -0.496354 0.000000
      vertex 0.060268 -0.496354 10.000000
    endloop
  endfacet
  facet normal -0.239316 -0.970942 0.000000
    outer loop
      vertex -0.177302 -0.467508 0.000000
      vertex -0.060268 -0.496354 0.000000
      vertex -0.177302 -0.467508 10.000000
    endloop
  endfacet
  facet normal 0.000000 -1.000000 0.000000
    outer loop
      vertex -0.060268 -0.496354 0.000000
      vertex 0.060268 -0.496354 0.000000
      vertex 0.060268 -0.496354 10.000000
    endloop
  endfacet
  facet normal 0.239316 -0.970942 0.000000
    outer loop
      vertex 0.060268 -0.496354 10.000000
      vertex 0.177302 -0.467508 0.000000
      vertex 0.177302 -0.467508 10.000000
    endloop
  endfacet
  facet normal 0.239316 -0.970942 0.000000
    outer loop
      vertex 0.060268 -0.496354 0.000000
      vertex 0.177302 -0.467508 0.000000
      vertex 0.060268 -0.496354 10.000000
    endloop
  endfacet
  facet normal 0.464723 -0.885456 0.000000
    outer loop
      vertex 0.177302 -0.467508 10.000000
      vertex 0.284032 -0.411492 0.000000
      vertex 0.284032 -0.411492 10.000000
    endloop
  endfacet
  facet normal 0.663123 -0.748511 0.000000
    outer loop
      vertex 0.284032 -0.411492 10.000000
      vertex 0.284032 -0.411492 0.000000
      vertex 0.374255 -0.331561 10.000000
    endloop
  endfacet
  facet normal 0.464723 -0.885456 0.000000
    outer loop
      vertex 0.177302 -0.467508 0.000000
      vertex 0.284032 -0.411492 0.000000
      vertex 0.177302 -0.467508 10.000000
    endloop
  endfacet
  facet normal 0.663123 -0.748511 0.000000
    outer loop
      vertex 0.284032 -0.411492 0.000000
      vertex 0.374255 -0.331561 0.000000
      vertex 0.374255 -0.331561 10.000000
    endloop
  endfacet
  facet normal 0.822984 -0.568065 0.000000
    outer loop
      vertex 0.374255 -0.331561 10.000000
      vertex 0.442728 -0.232362 0.000000
      vertex 0.442728 -0.232362 10.000000
    endloop
  endfacet
  facet normal 0.822984 -0.568065 0.000000
    outer loop
      vertex 0.374255 -0.331561 0.000000
      vertex 0.442728 -0.232362 0.000000
      vertex 0.374255 -0.331561 10.000000
    endloop
  endfacet
  facet normal 0.935016 -0.354605 0.000000
    outer loop
      vertex 0.442728 -0.232362 10.000000
      vertex 0.485471 -0.119658 0.000000
      vertex 0.485471 -0.119658 10.000000
    endloop
  endfacet
  facet normal 0.935016 -0.354605 0.000000
    outer loop
      vertex 0.442728 -0.232362 0.000000
      vertex 0.485471 -0.119658 0.000000
      vertex 0.442728 -0.232362 10.000000
    endloop
  endfacet
  facet normal 0.992709 -0.120537 0.000000
    outer loop
      vertex 0.485471 -0.119658 10.000000
      vertex 0.500000 -0.000000 0.000000
      vertex 0.500000 -0.000000 10.000000
    endloop
  endfacet
  facet normal 0.992709 -0.120537 0.000000
    outer loop
      vertex 0.485471 -0.119658 0.000000
      vertex 0.500000 -0.000000 0.000000
      vertex 0.485471 -0.119658 10.000000
    endloop
  endfacet
  facet normal 0.000000 0.000000 -1.000000
    outer loop
      vertex 0.177302 -0.467508 0.000000
      vertex 0.374255 -0.331561 0.000000
      vertex 0.284032 -0.411492 0.000000
    endloop
  endfacet
  facet normal 0.000000 0.000000 -1.000000
    outer loop
      vertex 0.374255 -0.331561 0.000000
      vertex 0.485471 -0.119658 0.000000
      vertex 0.442728 -0.232362 0.000000
    endloop
  endfacet
  facet normal -0.000000 -0.000000 -1.000000
    outer loop
      vertex 0.177302 0.467508 0.000000
      vertex 0.284032 0.411492 0.000000
      vertex 0.060268 0.496354 0.000000
    endloop
  endfacet
  facet normal 0.000000 0.000000 -1.000000
    outer loop
      vertex 0.500000 -0.000000 0.000000
      vertex 0.374255 0.331561 0.000000
      vertex 0.485471 0.119658 0.000000
    endloop
  endfacet
  facet normal 0.000000 0.000000 -1.000000
    outer loop
      vertex 0.485471 0.119658 0.000000
      vertex 0.374255 0.331561 0.000000
      vertex 0.442728 0.232362 0.000000
    endloop
  endfacet
  facet normal -0.000000 -0.000000 -1.000000
    outer loop
      vertex 0.060268 0.496354 0.000000
      vertex 0.374255 0.331561 0.000000
      vertex -0.060268 0.496354 0.000000
    endloop
  endfacet
  facet normal 0.000000 -0.000000 -1.000000
    outer loop
      vertex -0.060268 0.496354 0.000000
      vertex 0.374255 0.331561 0.000000
      vertex -0.177302 0.467508 0.000000
    endloop
  endfacet
  facet normal 0.000000 -0.000000 -1.000000
    outer loop
      vertex -0.177302 0.467508 0.000000
      vertex 0.374255 0.331561 0.000000
      vertex -0.284032 0.411492 0.000000
    endloop
  endfacet
  facet normal 0.000000 -0.000000 -1.000000
    outer loop
      vertex -0.284032 0.411492 0.000000
      vertex 0.374255 0.331561 0.000000
      vertex -0.374255 0.331561 0.000000
    endloop
  endfacet
  facet normal 0.000000 -0.000000 -1.000000
    outer loop
      vertex -0.374255 0.331561 0.000000
      vertex 0.374255 0.331561 0.000000
      vertex -0.442728 0.232362 0.000000
    endloop
  endfacet
  facet normal 0.000000 -0.000000 -1.000000
    outer loop
      vertex -0.442728 0.232362 0.000000
      vertex 0.374255 0.331561 0.000000
      vertex -0.485471 0.119658 0.000000
    endloop
  endfacet
  facet normal 0.000000 -0.000000 -1.000000
    outer loop
      vertex -0.485471 0.119658 0.000000
      vertex 0.374255 0.331561 0.000000
      vertex -0.500000 0.000000 0.000000
    endloop
  endfacet
  facet normal 0.000000 0.000000 -1.000000
    outer loop
      vertex -0.500000 0.000000 0.000000
      vertex 0.374255 0.331561 0.000000
      vertex -0.485471 -0.119658 0.000000
    endloop
  endfacet
  facet normal 0.000000 0.000000 -1.000000
    outer loop
      vertex -0.485471 -0.119658 0.000000
      vertex 0.374255 0.331561 0.000000
      vertex -0.442728 -0.232362 0.000000
    endloop
  endfacet
  facet normal 0.000000 0.000000 -1.000000
    outer loop
      vertex -0.442728 -0.232362 0.000000
      vertex 0.374255 0.331561 0.000000
      vertex -0.374255 -0.331561 0.000000
    endloop
  endfacet
  facet normal 0.000000 0.000000 -1.000000
    outer loop
      vertex -0.374255 -0.331561 0.000000
      vertex 0.374255 0.331561 0.000000
      vertex -0.284032 -0.411492 0.000000
    endloop
  endfacet
  facet normal 0.000000 0.000000 -1.000000
    outer loop
      vertex -0.284032 -0.411492 0.000000
      vertex 0.374255 0.331561 0.000000
      vertex -0.177302 -0.467508 0.000000
    endloop
  endfacet
  facet normal 0.000000 0.000000 -1.000000
    outer loop
      vertex -0.177302 -0.467508 0.000000
      vertex 0.374255 0.331561 0.000000
      vertex -0.060268 -0.496354 0.000000
    endloop
  endfacet
  facet normal 0.000000 0.000000 -1.000000
    outer loop
      vertex -0.060268 -0.496354 0.000000
      vertex 0.374255 0.331561 0.000000
      vertex 0.060268 -0.496354 0.000000
    endloop
  endfacet
  facet normal 0.000000 0.000000 -1.000000
    outer loop
      vertex 0.060268 -0.496354 0.000000
      vertex 0.374255 0.331561 0.000000
      vertex 0.177302 -0.467508 0.000000
    endloop
  endfacet
  facet normal 0.000000 0.000000 -1.000000
    outer loop
      vertex 0.485471 -0.119658 0.000000
      vertex 0.374255 0.331561 0.000000
      vertex 0.500000 -0.000000 0.000000
    endloop
  endfacet
  facet normal 0.000000 0.000000 -1.000000
    outer loop
      vertex 0.374255 -0.331561 0.000000
      vertex 0.374255 0.331561 0.000000
      vertex 0.485471 -0.119658 0.000000
    endloop
  endfacet
  facet normal 0.000000 0.000000 -1.000000
    outer loop
      vertex 0.177302 -0.467508 0.000000
      vertex 0.374255 0.331561 0.000000
      vertex 0.374255 -0.331561 0.000000
    endloop
  endfacet
  facet normal -0.000000 -0.000000 -1.000000
    outer loop
      vertex 0.284032 0.411492 0.000000
      vertex 0.374255 0.331561 0.000000
      vertex 0.060268 0.496354 0.000000
    endloop
  endfacet
  facet normal 0.000000 0.000000 1.000000
    outer loop
      vertex 0.374255 -0.331561 10.000000
      vertex 0.177302 -0.467508 10.000000
      vertex 0.284032 -0.411492 10.000000
    endloop
  endfacet
  facet normal 0.000000 0.000000 1.000000
    outer loop
      vertex 0.485471 -0.119658 10.000000
      vertex 0.374255 -0.331561 10.000000
      vertex 0.442728 -0.232362 10.000000
    endloop
  endfacet
  facet normal 0.000000 0.000000 1.000000
    outer loop
      vertex 0.284032 0.411492 10.000000
      vertex 0.177302 0.467508 10.000000
      vertex 0.060268 0.496354 10.000000
    endloop
  endfacet
  facet normal 0.000000 0.000000 1.000000
    outer loop
      vertex 0.374255 0.331561 10.000000
      vertex 0.500000 -0.000000 10.000000
      vertex 0.485471 0.119658 10.000000
    endloop
  endfacet
  facet normal 0.000000 0.000000 1.000000
    outer loop
      vertex 0.374255 0.331561 10.000000
      vertex 0.485471 0.119658 10.000000
      vertex 0.442728 0.232362 10.000000
    endloop
  endfacet
  facet normal 0.000000 0.000000 1.000000
    outer loop
      vertex 0.374255 0.331561 10.000000
      vertex 0.060268 0.496354 10.000000
      vertex -0.060268 0.496354 10.000000
    endloop
  endfacet
  facet normal 0.000000 0.000000 1.000000
    outer loop
      vertex 0.374255 0.331561 10.000000
      vertex -0.060268 0.496354 10.000000
      vertex -0.177302 0.467508 10.000000
    endloop
  endfacet
  facet normal 0.000000 0.000000 1.000000
    outer loop
      vertex 0.374255 0.331561 10.000000
      vertex -0.177302 0.467508 10.000000
      vertex -0.284032 0.411492 10.000000
    endloop
  endfacet
  facet normal 0.000000 0.000000 1.000000
    outer loop
      vertex 0.374255 0.331561 10.000000
      vertex -0.284032 0.411492 10.000000
      vertex -0.374255 0.331561 10.000000
    endloop
  endfacet
  facet normal 0.000000 0.000000 1.000000
    outer loop
      vertex 0.374255 0.331561 10.000000
      vertex -0.374255 0.331561 10.000000
      vertex -0.442728 0.232362 10.000000
    endloop
  endfacet
  facet normal 0.000000 0.000000 1.000000
    outer loop
      vertex 0.374255 0.331561 10.000000
      vertex -0.442728 0.232362 10.000000
      vertex -0.485471 0.119658 10.000000
    endloop
  endfacet
  facet normal 0.000000 0.000000 1.000000
    outer loop
      vertex 0.374255 0.331561 10.000000
      vertex -0.485471 0.119658 10.000000
      vertex -0.500000 0.000000 10.000000
    endloop
  endfacet
  facet normal 0.000000 0.000000 1.000000
    outer loop
      vertex 0.374255 0.331561 10.000000
      vertex -0.500000 0.000000 10.000000
      vertex -0.485471 -0.119658 10.000000
    endloop
  endfacet
  facet normal 0.000000 0.000000 1.000000
    outer loop
      vertex 0.374255 0.331561 10.000000
      vertex -0.485471 -0.119658 10.000000
      vertex -0.442728 -0.232362 10.000000
    endloop
  endfacet
  facet normal 0.000000 0.000000 1.000000
    outer loop
      vertex 0.374255 0.331561 10.000000
      vertex -0.442728 -0.232362 10.000000
      vertex -0.374255 -0.331561 10.000000
    endloop
  endfacet
  facet normal 0.000000 0.000000 1.000000
    outer loop
      vertex 0.374255 0.331561 10.000000
      vertex -0.374255 -0.331561 10.000000
      vertex -0.284032 -0.411492 10.000000
    endloop
  endfacet
  facet normal 0.000000 0.000000 1.000000
    outer loop
      vertex 0.374255 0.331561 10.000000
      vertex -0.284032 -0.411492 10.000000
      vertex -0.177302 -0.467508 10.000000
    endloop
  endfacet
  facet normal 0.000000 0.000000 1.000000
    outer loop
      vertex 0.374255 0.331561 10.000000
      vertex -0.177302 -0.467508 10.000000
      vertex -0.060268 -0.496354 10.000000
    endloop
  endfacet
  facet normal 0.000000 0.000000 1.000000
    outer loop
      vertex 0.374255 0.331561 10.000000
      vertex -0.060268 -0.496354 10.000000
      vertex 0.060268 -0.496354 10.000000
    endloop
  endfacet
  facet normal 0.000000 0.000000 1.000000
    outer loop
      vertex 0.374255 0.331561 10.000000
      vertex 0.060268 -0.496354 10.000000
      vertex 0.177302 -0.467508 10.000000
    endloop
  endfacet
  facet normal 0.000000 0.000000 1.000000
    outer loop
      vertex 0.374255 0.331561 10.000000
      vertex 0.485471 -0.119658 10.000000
      vertex 0.500000 -0.000000 10.000000
    endloop
  endfacet
  facet normal 0.000000 0.000000 1.000000
    outer loop
      vertex 0.374255 0.331561 10.000000
      vertex 0.374255 -0.331561 10.000000
      vertex 0.485471 -0.119658 10.000000
    endloop
  endfacet
  facet normal 0.000000 0.000000 1.000000
    outer loop
      vertex 0.374255 0.331561 10.000000
      vertex 0.177302 -0.467508 10.000000
      vertex 0.374255 -0.331561 10.000000
    endloop
  endfacet
  facet normal 0.000000 0.000000 1.000000
    outer loop
      vertex 0.374255 0.331561 10.000000
      vertex 0.284032 0.411492 10.000000
      vertex 0.060268 0.496354 10.000000
    endloop
  endfacet
endsolid Mesh
